<svg width="73" height="72" viewBox="0 0 73 72" fill="none" xmlns="http://www.w3.org/2000/svg">
<rect x="0.5" width="72" height="72" rx="16" fill="#F6F6F6"/>
<path d="M56.5 36C56.5 47.0457 47.5457 56 36.5 56M56.5 36C56.5 24.9543 47.5457 16 36.5 16M56.5 36H16.5M36.5 56C25.4543 56 16.5 47.0457 16.5 36M36.5 56C41.5026 50.5233 44.3455 43.4159 44.5 36C44.3455 28.5841 41.5026 21.4767 36.5 16M36.5 56C31.4974 50.5233 28.6545 43.4159 28.5 36C28.6545 28.5841 31.4974 21.4767 36.5 16M16.5 36C16.5 24.9543 25.4543 16 36.5 16" stroke="#2B3449" stroke-width="2" stroke-linecap="round" stroke-linejoin="round"/>
</svg>
