<svg width="12" height="13" viewBox="0 0 12 13" fill="none" xmlns="http://www.w3.org/2000/svg">
<g clip-path="url(#clip0_255_16405)">
<path d="M11.7611 3.57635C11.6932 3.32105 11.5595 3.08806 11.3733 2.90068C11.1871 2.71329 10.955 2.5781 10.7001 2.50862C9.76196 2.25635 6.01196 2.25635 6.01196 2.25635C6.01196 2.25635 2.26196 2.25635 1.32378 2.50862C1.06893 2.5781 0.836792 2.71329 0.650607 2.90068C0.464421 3.08806 0.330716 3.32105 0.262872 3.57635C0.0119629 4.51862 0.0119629 6.48362 0.0119629 6.48362C0.0119629 6.48362 0.0119629 8.44862 0.262872 9.39089C0.330716 9.64619 0.464421 9.87918 0.650607 10.0666C0.836792 10.2539 1.06893 10.3891 1.32378 10.4586C2.26196 10.7109 6.01196 10.7109 6.01196 10.7109C6.01196 10.7109 9.76196 10.7109 10.7001 10.4586C10.955 10.3891 11.1871 10.2539 11.3733 10.0666C11.5595 9.87918 11.6932 9.64619 11.7611 9.39089C12.012 8.44862 12.012 6.48362 12.012 6.48362C12.012 6.48362 12.012 4.51862 11.7611 3.57635Z" fill="#AEAEAE"/>
<path d="M4.78467 8.26786V4.69922L7.92103 6.48354L4.78467 8.26786Z" fill="#FEFEFE"/>
</g>
<defs>
<clipPath id="clip0_255_16405">
<rect width="12" height="12" fill="white" transform="translate(0 0.483398)"/>
</clipPath>
</defs>
</svg>
