<svg width="12" height="13" viewBox="0 0 12 13" fill="none" xmlns="http://www.w3.org/2000/svg">
<g clip-path="url(#clip0_255_16394)">
<path d="M6 1.56387C7.60313 1.56387 7.79297 1.5709 8.42344 1.59902C9.00938 1.6248 9.32578 1.72324 9.53672 1.80527C9.81563 1.91309 10.0172 2.04434 10.2258 2.25293C10.4367 2.46387 10.5656 2.66309 10.6734 2.94199C10.7555 3.15293 10.8539 3.47168 10.8797 4.05527C10.9078 4.68809 10.9148 4.87793 10.9148 6.47871C10.9148 8.08184 10.9078 8.27168 10.8797 8.90215C10.8539 9.48809 10.7555 9.80449 10.6734 10.0154C10.5656 10.2943 10.4344 10.4959 10.2258 10.7045C10.0148 10.9154 9.81563 11.0443 9.53672 11.1521C9.32578 11.2342 9.00703 11.3326 8.42344 11.3584C7.79063 11.3865 7.60078 11.3936 6 11.3936C4.39688 11.3936 4.20703 11.3865 3.57656 11.3584C2.99063 11.3326 2.67422 11.2342 2.46328 11.1521C2.18438 11.0443 1.98281 10.9131 1.77422 10.7045C1.56328 10.4936 1.43438 10.2943 1.32656 10.0154C1.24453 9.80449 1.14609 9.48574 1.12031 8.90215C1.09219 8.26934 1.08516 8.07949 1.08516 6.47871C1.08516 4.87559 1.09219 4.68574 1.12031 4.05527C1.14609 3.46934 1.24453 3.15293 1.32656 2.94199C1.43438 2.66309 1.56563 2.46152 1.77422 2.25293C1.98516 2.04199 2.18438 1.91309 2.46328 1.80527C2.67422 1.72324 2.99297 1.6248 3.57656 1.59902C4.20703 1.5709 4.39688 1.56387 6 1.56387ZM6 0.483398C4.37109 0.483398 4.16719 0.49043 3.52734 0.518555C2.88984 0.54668 2.45156 0.649805 2.07188 0.797461C1.67578 0.952148 1.34063 1.15605 1.00781 1.49121C0.672656 1.82402 0.46875 2.15918 0.314063 2.55293C0.166406 2.93496 0.0632813 3.3709 0.0351563 4.0084C0.00703125 4.65059 0 4.85449 0 6.4834C0 8.1123 0.00703125 8.31621 0.0351563 8.95605C0.0632813 9.59355 0.166406 10.0318 0.314063 10.4115C0.46875 10.8076 0.672656 11.1428 1.00781 11.4756C1.34063 11.8084 1.67578 12.0146 2.06953 12.167C2.45156 12.3146 2.8875 12.4178 3.525 12.4459C4.16484 12.474 4.36875 12.4811 5.99766 12.4811C7.62656 12.4811 7.83047 12.474 8.47031 12.4459C9.10781 12.4178 9.54609 12.3146 9.92578 12.167C10.3195 12.0146 10.6547 11.8084 10.9875 11.4756C11.3203 11.1428 11.5266 10.8076 11.6789 10.4139C11.8266 10.0318 11.9297 9.5959 11.9578 8.9584C11.9859 8.31855 11.993 8.11465 11.993 6.48574C11.993 4.85684 11.9859 4.65293 11.9578 4.01309C11.9297 3.37559 11.8266 2.9373 11.6789 2.55762C11.5312 2.15918 11.3273 1.82402 10.9922 1.49121C10.6594 1.1584 10.3242 0.952148 9.93047 0.799805C9.54844 0.652148 9.1125 0.549023 8.475 0.520898C7.83281 0.49043 7.62891 0.483398 6 0.483398Z" fill="#AEAEAE"/>
<path d="M6 3.40137C4.29844 3.40137 2.91797 4.78184 2.91797 6.4834C2.91797 8.18496 4.29844 9.56543 6 9.56543C7.70156 9.56543 9.08203 8.18496 9.08203 6.4834C9.08203 4.78184 7.70156 3.40137 6 3.40137ZM6 8.48262C4.89609 8.48262 4.00078 7.5873 4.00078 6.4834C4.00078 5.37949 4.89609 4.48418 6 4.48418C7.10391 4.48418 7.99922 5.37949 7.99922 6.4834C7.99922 7.5873 7.10391 8.48262 6 8.48262Z" fill="#AEAEAE"/>
<path d="M9.92344 3.27959C9.92344 3.67803 9.6 3.99912 9.20391 3.99912C8.80547 3.99912 8.48438 3.67569 8.48438 3.27959C8.48438 2.88115 8.80781 2.56006 9.20391 2.56006C9.6 2.56006 9.92344 2.8835 9.92344 3.27959Z" fill="#AEAEAE"/>
</g>
<defs>
<clipPath id="clip0_255_16394">
<rect width="12" height="12" fill="white" transform="translate(0 0.483398)"/>
</clipPath>
</defs>
</svg>
