<svg width="73" height="72" viewBox="0 0 73 72" fill="none" xmlns="http://www.w3.org/2000/svg">
<rect x="0.5" width="72" height="72" rx="16" fill="#F6F6F6"/>
<path d="M18.5 48V36C18.5 31.2261 20.3964 26.6477 23.7721 23.2721C27.1477 19.8964 31.7261 18 36.5 18C41.2739 18 45.8523 19.8964 49.2279 23.2721C52.6036 26.6477 54.5 31.2261 54.5 36V48M54.5 50C54.5 51.0609 54.0786 52.0783 53.3284 52.8284C52.5783 53.5786 51.5609 54 50.5 54H48.5C47.4391 54 46.4217 53.5786 45.6716 52.8284C44.9214 52.0783 44.5 51.0609 44.5 50V44C44.5 42.9391 44.9214 41.9217 45.6716 41.1716C46.4217 40.4214 47.4391 40 48.5 40H54.5V50ZM18.5 50C18.5 51.0609 18.9214 52.0783 19.6716 52.8284C20.4217 53.5786 21.4391 54 22.5 54H24.5C25.5609 54 26.5783 53.5786 27.3284 52.8284C28.0786 52.0783 28.5 51.0609 28.5 50V44C28.5 42.9391 28.0786 41.9217 27.3284 41.1716C26.5783 40.4214 25.5609 40 24.5 40H18.5V50Z" stroke="#2B3449" stroke-width="2" stroke-linecap="round" stroke-linejoin="round"/>
</svg>
